<svg xmlns="http://www.w3.org/2000/svg" width="32" height="32" viewBox="0 0 512 512">
  <path d="M494.479 138.557L364.04 3.018A9.853 9.853 0 0 0 356.945 0h-194.41c-21.757 0-39.458 17.694-39.458 39.442v137.789H44.29c-16.278 0-29.521 13.239-29.521 29.513v147.744C14.769 370.761 28.012 384 44.29 384h78.787v88.627c0 21.71 17.701 39.373 39.458 39.373h295.238c21.757 0 39.458-17.653 39.458-39.351V145.385a9.85 9.85 0 0 0-2.752-6.828zM359.385 26.581l107.079 111.265H359.385V26.581zM44.29 364.308c-5.42 0-9.828-4.405-9.828-9.82V206.744c0-5.415 4.409-9.821 9.828-9.821h265.882c5.42 0 9.828 4.406 9.828 9.821v147.744c0 5.415-4.409 9.82-9.828 9.82H44.29zm433.248 108.341c0 10.84-8.867 19.659-19.766 19.659H162.535c-10.899 0-19.766-8.828-19.766-19.68V384h167.403c16.278 0 29.521-13.239 29.521-29.512V206.744c0-16.274-13.243-29.513-29.521-29.513H142.769V39.442c0-10.891 8.867-19.75 19.766-19.75h177.157v128c0 5.438 4.409 9.846 9.846 9.846h128v315.111z"/>
  <path d="M122.635 249.895c-3.269-4.251-7.327-7.01-12.173-8.281-3.154-.847-9.923-1.267-20.308-1.267H62.75v84.576h17.077v-31.904h11.135c7.731 0 13.635-.404 17.711-1.211 3-.655 5.952-1.992 8.856-4.01s5.298-4.798 7.183-8.337c1.885-3.537 2.827-7.904 2.827-13.096-.001-6.729-1.635-12.221-4.904-16.47zm-14.625 23.279c-1.288 1.883-3.067 3.269-5.337 4.153-2.269.883-6.769 1.326-13.5 1.326h-9.346v-24h8.25c6.154 0 10.25.192 12.289.576 2.769.502 5.058 1.75 6.865 3.751 1.808 1.999 2.712 4.539 2.712 7.616-.001 2.5-.645 4.692-1.933 6.578zM192.961 240.347v56.48l-34.615-56.48h-16.615v84.576h15.865V269.77l34.096 55.153h17.135v-84.576zM266.23 279.576v14.25h19.558v10.733c-2.577 1.999-5.664 3.699-9.26 5.105-3.596 1.403-7.183 2.105-10.76 2.105-7.231 0-13.077-2.508-17.538-7.528-4.462-5.019-6.692-12.549-6.692-22.587 0-9.307 2.202-16.328 6.606-21.059 4.404-4.731 10.337-7.097 17.798-7.097 4.923 0 9.028 1.204 12.317 3.606 3.288 2.405 5.529 5.684 6.721 9.837l16.962-3.173c-1.692-7.769-5.49-13.856-11.394-18.26-5.904-4.404-14.106-6.605-24.606-6.605-8.077 0-14.827 1.403-20.25 4.212-7.115 3.653-12.519 8.903-16.211 15.749-3.692 6.846-5.539 14.673-5.539 23.48 0 8.116 1.654 15.626 4.961 22.528 3.308 6.905 8.25 12.212 14.827 15.924 6.577 3.712 14.289 5.568 23.135 5.568 6.961 0 13.836-1.317 20.625-3.953 6.788-2.634 11.971-5.681 15.548-9.142v-33.694H266.23z"/>
</svg>
